<?xml version="1.0" encoding="UTF-8" standalone="no"?>
<!-- Created with Inkscape (http://www.inkscape.org/) -->

<svg
   xmlns:dc="http://purl.org/dc/elements/1.1/"
   xmlns:cc="http://creativecommons.org/ns#"
   xmlns:rdf="http://www.w3.org/1999/02/22-rdf-syntax-ns#"
   xmlns:svg="http://www.w3.org/2000/svg"
   xmlns="http://www.w3.org/2000/svg"
   xmlns:sodipodi="http://sodipodi.sourceforge.net/DTD/sodipodi-0.dtd"
   xmlns:inkscape="http://www.inkscape.org/namespaces/inkscape"
   width="350.78738"
   height="240.94487"
   id="svg2"
   version="1.1"
   inkscape:version="0.47 r22583"
   sodipodi:docname="label-2.svg"
   inkscape:export-filename="/home/michael/Dropbox/label-2.png"
   inkscape:export-xdpi="90"
   inkscape:export-ydpi="90">
  <defs
     id="defs4">
    <inkscape:perspective
       sodipodi:type="inkscape:persp3d"
       inkscape:vp_x="0 : 120.47243 : 1"
       inkscape:vp_y="0 : 1000 : 0"
       inkscape:vp_z="350.78738 : 120.47243 : 1"
       inkscape:persp3d-origin="175.39369 : 80.314957 : 1"
       id="perspective21" />
  </defs>
  <sodipodi:namedview
     id="base"
     pagecolor="#ffffff"
     bordercolor="#666666"
     borderopacity="1.0"
     inkscape:pageopacity="0.0"
     inkscape:pageshadow="2"
     inkscape:zoom="3.058791"
     inkscape:cx="175.39369"
     inkscape:cy="132.56872"
     inkscape:document-units="px"
     inkscape:current-layer="layer1"
     showgrid="false"
     showguides="true"
     inkscape:guide-bbox="true"
     units="mm"
     inkscape:window-width="1920"
     inkscape:window-height="1005"
     inkscape:window-x="0"
     inkscape:window-y="24"
     inkscape:window-maximized="1" />
  <metadata
     id="metadata7">
    <rdf:RDF>
      <cc:Work
         rdf:about="">
        <dc:format>image/svg+xml</dc:format>
        <dc:type
           rdf:resource="http://purl.org/dc/dcmitype/StillImage" />
        <dc:title></dc:title>
      </cc:Work>
    </rdf:RDF>
  </metadata>
  <g
     inkscape:label="Layer 1"
     inkscape:groupmode="layer"
     id="layer1"
     transform="translate(0,-811.4173)">
    <rect
       style="fill:#000000;stroke:none"
       id="rect4203"
       width="346.56909"
       height="49.695629"
       x="2.2061667"
       y="813.08618"
       rx="0"
       ry="15.576243" />
    <text
       xml:space="preserve"
       style="font-size:29.13893509px;font-style:normal;font-weight:normal;text-align:center;line-height:125%;letter-spacing:0px;word-spacing:0px;text-anchor:middle;fill:#ffff00;fill-opacity:1;stroke:none;font-family:Sans"
       x="174.90572"
       y="813.84735"
       id="text3993"
       sodipodi:linespacing="125%"><tspan
         sodipodi:role="line"
         x="174.90572"
         y="813.84735"
         id="tspan3997" /><tspan
         sodipodi:role="line"
         x="179.97089"
         y="850.271"
         id="tspan3999"
         style="font-weight:bold;-inkscape-font-specification:Sans Bold">WARNING </tspan></text>
    <path
       style="fill:#000000;fill-rule:evenodd"
       inkscape:connector-curvature="0"
       clip-rule="evenodd"
       d="m 190.8623,942.416 c 1.29173,-4.29387 2.60444,-8.58063 3.87713,-12.88917 0,0 0,0 0,-0.0728 0,0 0,0 0,-0.0722 0,-0.25161 -0.0666,-0.40386 -0.30642,-0.49691 0,0 0,0 -0.0918,0 -1.44414,-0.63642 -2.50524,-2.10028 -2.50524,-3.80382 0,-2.26596 1.8558,-4.04967 4.04283,-4.14163 0.47771,0 1.04643,0 1.61679,0 1.88238,0 3.73723,0 5.60604,0 0,1.37807 0,2.75738 0,4.14163 -1.70917,0 -3.41901,0 -5.1153,0 -0.3193,0 -0.64312,0 -1.0611,0 -0.22502,0 -0.47663,0.23804 -0.47663,0.49758 0,0.13815 0.0862,0.31081 0.25161,0.39043 0,0 0,0 0,0.0857 1.28612,0.72987 2.18757,1.62406 2.18757,3.07545 0,0.65615 -0.08,0.89405 -0.25271,1.53664 -0.0789,0.33794 -0.6486,2.03477 -0.6486,2.03477 9.31612,0 18.64636,0 27.96386,0 0.48333,-1.29915 1.0537,-2.67736 1.6235,-4.05598 -2.10027,-0.48348 -4.20753,-0.96682 -6.32891,-1.53718 -0.41058,-0.16582 -0.72193,-0.57023 -0.72193,-1.0537 0,-0.47608 0.48389,-0.97367 1.05315,-0.97367 4.69212,0 9.47633,0 14.26725,0 0,2.26555 -1.78933,4.04912 -4.06214,4.04912 -0.48334,1.13223 -0.96697,2.3586 -1.444,3.57141 1.70245,3.23401 3.47877,6.48049 5.2485,9.80083 0,0 0,0 0.0914,0 1.79029,-0.72261 3.72461,-1.13332 5.75924,-1.13332 8.42222,0 15.30766,6.89119 15.30766,15.32054 0,8.42946 -6.88544,15.24107 -15.30766,15.24107 -7.95202,0 -14.5187,-5.93098 -15.3267,-13.71007 0,0 0,0 0.0858,0 -0.56913,0 -1.20595,0 -1.86265,0 -0.41002,1.46402 -1.21856,2.67736 -2.5177,3.49178 0.49074,0.97368 0.98093,2.02738 1.55088,3.07492 0.7947,0 1.62352,0 2.41205,0 0,0.64311 0,1.29242 0,2.02804 -0.47786,0 -1.04767,0 -1.61735,0 -0.31095,0.32425 -0.72878,0.56296 -1.13223,0.56296 -0.48457,0 -0.88185,-0.15853 -1.21335,-0.56296 -0.63642,0 -1.37191,0 -2.11425,0 0,-0.64998 0,-1.30585 0,-2.02804 0.65614,0 1.30585,0 1.96146,0 -0.41757,-0.71577 -0.82814,-1.5372 -1.21912,-2.34615 -0.88103,0.31137 -1.1462,0.31137 -2.0212,0.31137 -3.41888,0 -6.169,-2.73696 -6.169,-6.06306 0,-0.6567 0.0862,-1.22514 0.25777,-1.79605 0,0 0,0 0,-0.0722 -5.77816,-3.97635 -11.59633,-7.946 -17.42698,-11.98786 -0.17321,0.47786 -0.34465,1.04644 -0.56967,1.6105 0,0 0,0.0925 0.0654,0.1591 3.81724,2.9158 5.9378,7.22956 5.9378,12.08653 0,8.42947 -6.89845,15.24107 -15.32794,15.24107 -8.42165,0 -15.3197,-6.8116 -15.3197,-15.24107 0,-8.42934 6.89805,-15.32053 15.3197,-15.32053 2.43247,0 3.32707,0.15225 5.60042,1.04698 2.6e-4,0 2.6e-4,0 0.0725,0 m 23.40522,14.27355 c 0,2.18646 1.87525,4.04856 4.15464,4.04856 2.25267,0 4.03501,-1.8621 4.03501,-4.04856 0,-2.27268 -1.78247,-4.14163 -4.03501,-4.14163 -2.27952,0 -4.15464,1.86895 -4.15464,4.14163 z m -21.21874,-7.29615 c -0.23804,0.88116 -0.49759,1.77576 -0.80895,2.75053 -0.89364,2.84262 -3.80875,5.18244 -6.73909,5.99645 -0.0722,0.08 -0.22392,0.08 -0.31108,0.08 -0.80703,0 -1.52991,-0.71576 -1.52991,-1.53101 0,-0.56912 0.22543,-0.98723 0.63491,-1.29901 0.088,0 0.15965,-0.0785 0.24543,-0.16581 1.78344,-1.13223 3.23443,-2.5103 3.80355,-4.20781 0.40441,-1.37808 0.8095,-2.75671 1.22747,-4.14163 -1.39165,-0.56241 -2.85043,-0.88789 -4.38145,-0.88789 -5.91013,0 -10.70173,4.79148 -10.70173,10.70215 0,5.91807 4.7916,10.68871 10.70173,10.68871 5.91123,0 10.68913,-4.77076 10.68913,-10.68871 0,-2.76355 -1.0537,-5.35442 -2.75683,-7.2227 1.4e-4,1.4e-4 1.4e-4,1.4e-4 -0.0732,-0.0733 z m 29.40853,2.6705 c 2.03545,-5.0228 4.06324,-10.03874 6.16899,-15.07511 1.22034,2.34559 2.50592,4.79093 3.81137,7.21038 0,0 0,0 -0.0865,0.0856 -3.55166,2.59033 -5.73855,6.40772 -6.24122,10.78122 0,0 0,0 0.0858,0.0666 -0.56912,0 -1.20595,0 -1.86265,0 -0.33054,-1.20664 -0.9009,-2.09452 -1.78892,-2.9887 -1.4e-4,1.3e-4 -1.4e-4,1.3e-4 -0.0869,-0.08 z m 12.16724,-3.6502 c -2.18703,1.70862 -3.41284,3.98868 -3.81012,6.65247 0,0 0,0 0,0.0666 2.43123,0 4.94344,0 7.44731,0 -1.20596,-2.25362 -2.41822,-4.53315 -3.63719,-6.80541 0,0 0,0 0,0.0863 z m 8.19075,7.61929 c 0.0788,0.16582 0.15171,0.41866 0.15171,0.6567 0,0.81525 -0.72248,1.531 -1.5306,1.531 -3.49206,0 -7.07045,0 -10.62213,0 0.80785,5.28125 5.26112,9.1577 10.62213,9.1577 5.91094,0 10.70118,-4.77076 10.70118,-10.6887 0,-5.91068 -4.79024,-10.70215 -10.70118,-10.70215 -1.21281,0 -2.51867,0.16527 -3.65747,0.56968 1.62284,3.14822 3.32596,6.32179 5.03636,9.47577 z m -27.81201,-4.44572 c -0.47718,-0.98778 -0.96066,-2.0286 -1.5317,-3.08176 -0.82142,0 -1.62228,0 -2.51085,0 0,-0.66217 0,-1.29804 0,-2.03477 0.56295,0 1.1192,0 1.68943,0 0.33849,-0.31807 0.73563,-0.48334 1.13332,-0.48334 0.41126,0 0.82813,0.16527 1.13936,0.48334 0.74247,0 1.45769,0 2.1877,0 0,0.6567 0,1.29969 0,2.03477 -0.64929,0 -1.28571,0 -1.92815,0 0.38987,0.7159 0.79441,1.52361 1.19814,2.33942 0,0 0.0807,0 0.1665,0 0.56351,-0.24544 1.2124,-0.32382 1.87512,-0.32382 0.0655,0 0.1524,0 0.22557,0 0,0 0,0 0.0796,0 1.94733,-4.69226 3.89687,-9.48373 5.84366,-14.25492 -9.16333,0 -18.39503,0 -27.64579,0 -0.22501,0.96792 -0.47663,1.9287 -0.79415,2.9158 6.16283,4.22125 12.3121,8.42947 18.48055,12.72349 0.0734,-0.0728 0.22584,-0.16526 0.39166,-0.31821 z"
       id="path15"
       inkscape:transform-center-y="-14.654445"
       inkscape:transform-center-x="-1.6996324e-05" />
    <text
       xml:space="preserve"
       style="font-size:33.96608353px;font-style:normal;font-weight:normal;line-height:125%;letter-spacing:0px;word-spacing:0px;fill:#000000;fill-opacity:1;stroke:none;font-family:Sans"
       x="79.064507"
       y="1020.6076"
       id="text4008"
       sodipodi:linespacing="125%"><tspan
         sodipodi:role="line"
         id="tspan4010"
         x="79.064507"
         y="1020.6076">KEEP BACK</tspan></text>
    <rect
       style="fill:none;stroke:#000000;stroke-width:1.989;stroke-miterlimit:4;stroke-opacity:1;stroke-dasharray:none"
       id="rect4205"
       width="346.10181"
       height="237.06534"
       x="2.7365339"
       y="813.39362"
       ry="0" />
    <text
       xml:space="preserve"
       style="font-size:21.8558197px;font-style:normal;font-weight:normal;line-height:125%;letter-spacing:0px;word-spacing:0px;fill:#000000;fill-opacity:1;stroke:none;font-family:Sans"
       x="58.816902"
       y="896.72302"
       id="text4207"
       sodipodi:linespacing="125%"><tspan
         sodipodi:role="line"
         id="tspan4209"
         x="58.816902"
         y="896.72302">DANGEROUS DRIVER</tspan></text>
    <path
       inkscape:connector-curvature="0"
       d="m 122.7685,909.88764 c -2.30127,-0.0224 -7.81532,1.17305 -8.87255,7.99838 l -2.67483,16.3666 c 0,0 -4.70414,0.30633 -4.72805,5.33473 v 14.70045 c 0,0 -0.21482,2.7794 2.55753,4.34101 v 11.53622 c 0,0 1.71475,2.42832 5.42813,2.47312 3.64989,-0.0445 5.03214,-2.56649 5.03214,-2.56649 v -10.55374 c 0,0 14.78261,0.81815 21.11855,0.78077 6.31725,0.0371 21.01394,-0.78077 21.01394,-0.78077 v 10.55374 c 0,0 1.45697,2.52169 5.12553,2.56649 3.69473,-0.0445 5.42815,-2.47312 5.42815,-2.47312 v -11.53622 c 2.75328,-1.56161 2.5665,-4.34101 2.5665,-4.34101 v -14.70045 c -0.0411,-5.0284 -4.83041,-5.33473 -4.83041,-5.33473 l -2.57024,-16.3666 c -1.07592,-6.82533 -6.60118,-8.0208 -8.88376,-7.99838 H 122.7685 z m 12.14139,5.12554 h 11.33445 c 0.96384,0.0224 10.7965,0.71728 11.34567,0.79572 2.95502,0.31008 6.35461,2.10326 7.20638,6.20893 l 0.68738,4.93874 c 0,0 0.79947,4.30366 -3.74702,4.34102 -3.54155,-0.0374 -16.66919,-0.80694 -21.10733,-0.792 -4.45683,-0.015 -17.59568,0.75464 -21.11855,0.792 -4.56516,-0.0374 -3.74702,-4.34102 -3.74702,-4.34102 l 0.68739,-4.93874 c 0.83309,-4.10567 4.23267,-5.89885 7.20265,-6.20893 0.53422,-0.0784 10.37435,-0.77331 11.256,-0.79572 z"
       id="path12"
       style="fill:#000000;fill-rule:nonzero" />
    <path
       sodipodi:type="star"
       style="fill:#000000;fill-opacity:1;stroke:none"
       id="path4229"
       sodipodi:sides="8"
       sodipodi:cx="187.5519"
       sodipodi:cy="117.94336"
       sodipodi:r1="36.215847"
       sodipodi:r2="14.031786"
       sodipodi:arg1="0.084306728"
       sodipodi:arg2="0.47700581"
       inkscape:flatsided="false"
       inkscape:rounded="0.03"
       inkscape:randomized="0"
       d="m 223.63911,120.99298 c -0.0603,0.71338 -23.29305,2.75666 -23.62175,3.39267 -0.32869,0.63601 11.44271,20.76983 10.89564,21.23164 -0.54706,0.4618 -18.41993,-14.52143 -19.10208,-14.30413 -0.68214,0.21731 -6.59527,22.7777 -7.30865,22.71742 -0.71338,-0.0603 -2.75666,-23.29306 -3.39267,-23.62175 -0.636,-0.3287 -20.76982,11.4427 -21.23163,10.89564 -0.46181,-0.54707 14.52142,-18.41993 14.30412,-19.10208 -0.2173,-0.68215 -22.7777,-6.59527 -22.71741,-7.30865 0.0603,-0.71339 23.29305,-2.75666 23.62175,-3.39267 0.32869,-0.63601 -11.44271,-20.769829 -10.89564,-21.231638 0.54706,-0.461808 18.41993,14.521428 19.10208,14.304118 0.68215,-0.2173 6.59527,-22.777695 7.30865,-22.71741 0.71338,0.06029 2.75666,23.29306 3.39267,23.62175 0.636,0.3287 20.76982,-11.442703 21.23163,-10.895638 0.46181,0.547065 -14.52142,18.419928 -14.30412,19.102078 0.2173,0.68215 22.7777,6.59527 22.71741,7.30865 z"
       transform="matrix(1.0236275,0,0,1.0236275,-14.744762,826.26686)"
       inkscape:transform-center-x="3.8004924"
       inkscape:transform-center-y="0.0059338297" />
    <text
       xml:space="preserve"
       style="font-size:40px;font-style:normal;font-weight:normal;line-height:125%;letter-spacing:0px;word-spacing:0px;fill:#000000;fill-opacity:1;stroke:none;font-family:Sans"
       x="10.84967"
       y="1046.6257"
       id="text4231"
       sodipodi:linespacing="125%"><tspan
         sodipodi:role="line"
         id="tspan4233"
         x="10.84967"
         y="1046.6257"
         style="font-size:10px">This driver's driving is putting the lives of other road users at risk</tspan></text>
  </g>
</svg>
